<svg width="165" height="32" viewBox="0 0 165 32" fill="none" xmlns="http://www.w3.org/2000/svg">
<path d="M134.082 1V20.25L144.363 4.55469H147.262L157.871 20.7422V1H164.57V31.0781H157.789L146.141 13.332L134.492 31.0781H127.383V1H134.082ZM19.1406 18.668L30.7891 0.921875H37.5703V31H30.8711V11.2578L20.2617 27.4453H17.3633L7.08203 11.75V31H0.382812V0.921875H7.49219L19.1406 18.668ZM72.3633 22.7422V0.921875H79.0625V31H71.4336L51.3086 9.17969V31H44.6094V0.921875H52.2383L72.3633 22.7422ZM113.855 22.7422V0.921875H120.555V31H112.926L92.8008 9.17969V31H86.1016V0.921875H93.7305L113.855 22.7422Z" fill="black"/>
</svg>
